#!OML:ASF X:\für Bonn\!DataBase\2005_08_11_Bastian_Final\c3d\Bastian.ASF
:FULLY-SPECIFIED
:DEGREES
61
root -1.3834 10.1692 1.77993 163.202 -1.16433 -173.348
lowerback 31.5335 0.0896095 2.54698
upperback 7.00156 -0.938177 0.995668
thorax -9.32544 -1.31961 0.148595
lowerneck -9.61152 -7.81819 -4.23672
upperneck -9.1899 -8.49844 12.7508
head -0.466445 -3.6575 4.71163
rclavicle -1.66979e-014 7.15625e-015
rhumerus 75.6458 11.2224 21.4585
rradius 40.7611
rwrist -73.8365
rhand -49.7319 -7.87207
rfingers 7.12502
rthumb -22.3318 -36.6015
lclavicle -1.66979e-014 7.15625e-015
lhumerus 73.9478 -14.3755 -40.3266
lradius 32.9404
lwrist 35.6594
lhand -44.5475 22.5124
lfingers 7.12502
lthumb -17.3482 51.7582
rfemur -41.4575 -11.0208 28.4204
rtibia 126.525
rfoot -46.7482 -8.43047
rtoes -4.90117
lfemur -41.1953 12.988 -5.64688
ltibia 130.312
lfoot -46.998 -19.5556
ltoes -9.42614
62
root -1.37944 9.93785 1.78088 162.986 -1.14226 -173.346
lowerback 31.7982 0.116099 2.54341
upperback 7.08193 -0.939603 1.00464
thorax -9.3579 -1.33733 0.168045
lowerneck -9.61306 -7.8221 -4.32896
upperneck -9.42323 -8.42834 13.1787
head -0.421121 -3.62888 4.41749
rclavicle 7.55382e-015 -1.27222e-014
rhumerus 75.5842 11.1106 21.932
rradius 40.9378
rwrist -74.3519
rhand -49.8243 -7.85603
rfingers 7.12502
rthumb -22.4205 -36.5748
lclavicle 7.55382e-015 -1.27222e-014
lhumerus 73.7987 -14.205 -40.3215
lradius 32.9989
lwrist 35.7482
lhand -44.4647 22.6115
lfingers 7.12502
lthumb -17.2685 51.8643
rfemur -42.3728 -11.5765 28.418
rtibia 128.697
rfoot -47.0735 -8.42684
rtoes -4.90021
lfemur -41.9723 14.2429 -4.98767
ltibia 132.519
lfoot -47.3977 -19.8786
ltoes -10.0896
63
root -1.3765 9.71524 1.78135 162.782 -1.11017 -173.36
lowerback 32.3182 0.142612 2.55672
upperback 6.72448 -0.92364 0.998133
thorax -9.20948 -1.35245 0.16207
lowerneck -9.68792 -7.83039 -4.37488
upperneck -9.45251 -8.42146 13.2188
head -0.413956 -3.61815 4.43557
rclavicle -8.64713e-015 3.97569e-015
rhumerus 75.4961 11.0407 22.2835
rradius 41.0864
rwrist -74.716
rhand -49.8781 -7.93117
rfingers 7.12502
rthumb -22.4721 -36.6437
lclavicle -8.64713e-015 3.97569e-015
lhumerus 73.6402 -14.0341 -39.9123
lradius 32.9185
lwrist 35.3434
lhand -44.2208 22.6998
lfingers 7.12502
lthumb -17.0337 51.973
rfemur -43.2282 -12.1603 28.3898
rtibia 130.786
rfoot -47.3803 -8.49553
rtoes -4.95841
lfemur -42.669 15.6415 -4.29431
ltibia 134.636
lfoot -47.8328 -20.2102
ltoes -10.6018
64
root -1.37387 9.49479 1.78276 162.566 -1.09437 -173.359
lowerback 32.599 0.166661 2.57841
upperback 6.79738 -0.922032 1.00171
thorax -9.23913 -1.37028 0.160694
lowerneck -9.75801 -7.84325 -4.42103
upperneck -9.48875 -8.42021 13.255
head -0.409342 -3.6105 4.45258
rclavicle 1.11319e-014 3.18055e-015
rhumerus 75.4381 10.9884 22.5676
rradius 41.181
rwrist -75.0365
rhand -49.8784 -8.04874
rfingers 7.12502
rthumb -22.4724 -36.7612
lclavicle 1.11319e-014 3.18055e-015
lhumerus 73.496 -13.8816 -39.3345
lradius 32.7529
lwrist 34.7718
lhand -43.9136 22.6702
lfingers 7.12502
lthumb -16.738 51.9686
rfemur -44.0559 -12.8099 28.3708
rtibia 132.818
rfoot -47.6877 -8.50689
rtoes -4.85628
lfemur -43.3096 17.1583 -3.50712
ltibia 136.692
lfoot -48.3557 -20.49
ltoes -11.2893
65
root -1.37131 9.28105 1.78431 162.369 -1.08805 -173.366
lowerback 32.8823 0.193213 2.57255
upperback 6.84766 -0.919495 1.0072
thorax -9.29414 -1.38483 0.17601
lowerneck -9.7708 -7.83798 -4.4599
upperneck -9.5567 -8.39147 13.3063
head -0.424773 -3.59213 4.47671
rclavicle 1.2424e-014 -7.95139e-015
rhumerus 75.4119 10.984 22.8172
rradius 41.2494
rwrist -75.2983
rhand -49.8351 -8.25793
rfingers 7.12502
rthumb -22.4308 -36.9754
lclavicle 1.2424e-014 -7.95139e-015
lhumerus 73.3713 -13.7857 -38.6872
lradius 32.5767
lwrist 34.1655
lhand -43.6432 22.6395
lfingers 7.12502
lthumb -16.4777 51.9598
rfemur -44.8508 -13.512 28.3264
rtibia 134.772
rfoot -48.0081 -8.57858
rtoes -4.99736
lfemur -43.8733 18.7646 -2.70377
ltibia 138.643
lfoot -48.9517 -20.7231
ltoes -11.8996
66
root -1.36951 9.07448 1.7863 162.17 -1.07766 -173.395
lowerback 33.1555 0.234416 2.55637
upperback 6.92536 -0.910604 1.00988
thorax -9.31404 -1.39909 0.191011
lowerneck -9.87603 -7.84546 -4.44952
upperneck -9.57089 -8.39023 13.3029
head -0.413225 -3.58429 4.4713
rclavicle 5.96354e-015 9.54166e-015
rhumerus 75.3739 10.9676 22.9722
rradius 41.3055
rwrist -75.5214
rhand -49.834 -8.44332
rfingers 7.12502
rthumb -22.4298 -37.161
lclavicle 5.96354e-015 9.54166e-015
lhumerus 73.2346 -13.6712 -38.0292
lradius 32.4299
lwrist 33.6251
lhand -43.4468 22.5614
lfingers 7.12502
lthumb -16.2886 51.8972
rfemur -45.5917 -14.2773 28.2422
rtibia 136.645
rfoot -48.3012 -8.6826
rtoes -5.03292
lfemur -44.3347 20.4339 -1.86345
ltibia 140.511
lfoot -49.6153 -20.9663
ltoes -12.2923
67
root -1.36805 8.8783 1.78801 161.983 -1.07336 -173.424
lowerback 33.4222 0.268918 2.53431
upperback 6.99397 -0.909937 1.01015
thorax -9.34091 -1.41597 0.209528
lowerneck -10.0017 -7.84761 -4.42924
upperneck -9.55896 -8.38486 13.3075
head -0.391153 -3.57348 4.4657
rclavicle -2.48481e-015 -1.59028e-014
rhumerus 75.3559 10.9741 23.0914
rradius 41.3408
rwrist -75.7202
rhand -49.8383 -8.66981
rfingers 7.12502
rthumb -22.4339 -37.387
lclavicle -2.48481e-015 -1.59028e-014
lhumerus 73.1145 -13.6073 -37.5468
lradius 32.3623
lwrist 33.3746
lhand -43.3722 22.4548
lfingers 7.12502
lthumb -16.2168 51.7965
rfemur -46.2477 -15.1024 28.1451
rtibia 138.411
rfoot -48.616 -8.83853
rtoes -5.25223
lfemur -44.713 22.1231 -0.996335
ltibia 142.272
lfoot -50.2728 -21.1665
ltoes -12.6769
68
root -1.36646 8.6929 1.79056 161.801 -1.0715 -173.452
lowerback 33.6865 0.311224 2.49521
upperback 7.06444 -0.904171 1.03621
thorax -9.36372 -1.43097 0.262488
lowerneck -10.0979 -7.8504 -4.4949
upperneck -9.56718 -8.37179 13.3438
head -0.374341 -3.5583 4.48508
rclavicle -1.00386e-014 2.38542e-015
rhumerus 75.3524 10.9688 23.2422
rradius 41.4189
rwrist -75.9485
rhand -49.8859 -8.82956
rfingers 7.12502
rthumb -22.4796 -37.5412
lclavicle -1.00386e-014 2.38542e-015
lhumerus 73.0186 -13.5706 -37.5598
lradius 32.4936
lwrist 33.7828
lhand -43.5002 22.4183
lfingers 7.12502
lthumb -16.3401 51.7499
rfemur -46.8043 -15.9968 28.0194
rtibia 140.057
rfoot -48.9358 -9.00032
rtoes -5.2841
lfemur -44.9772 23.8478 -0.084124
ltibia 143.932
lfoot -50.9694 -21.2773
ltoes -13.2462
69
root -1.36566 8.51991 1.7938 161.614 -1.0759 -173.478
lowerback 33.9849 0.348441 2.47258
upperback 7.11632 -0.896317 1.05397
thorax -9.41938 -1.44438 0.298206
lowerneck -10.196 -7.85054 -4.52054
upperneck -9.55404 -8.3642 13.3433
head -0.354594 -3.54753 4.48625
rclavicle -1.64991e-014 -6.36111e-015
rhumerus 75.3634 10.9854 23.4085
rradius 41.463
rwrist -76.1744
rhand -49.9524 -8.95897
rfingers 7.12502
rthumb -22.5434 -37.6629
lclavicle -1.64991e-014 -6.36111e-015
lhumerus 72.9922 -13.5574 -37.9868
lradius 32.7698
lwrist 34.6549
lhand -43.7999 22.4059
lfingers 7.12502
lthumb -16.6286 51.7136
rfemur -47.2395 -16.9297 27.8721
rtibia 141.572
rfoot -49.3068 -9.13987
rtoes -5.40237
lfemur -45.1382 25.5206 0.843724
ltibia 145.461
lfoot -51.6303 -21.4231
ltoes -13.5346
70
root -1.36514 8.35856 1.79723 161.448 -1.08492 -173.508
lowerback 34.2395 0.380754 2.46089
upperback 7.18497 -0.895873 1.05553
thorax -9.43929 -1.46164 0.312326
lowerneck -10.3167 -7.86155 -4.52848
upperneck -9.53752 -8.36986 13.3587
head -0.329089 -3.54183 4.48798
rclavicle -5.36719e-015 -3.18055e-015
rhumerus 75.3789 10.9962 23.3903
rradius 41.4238
rwrist -76.2241
rhand -50.0113 -9.09526
rfingers 7.12502
rthumb -22.5999 -37.7923
lclavicle -5.36719e-015 -3.18055e-015
lhumerus 72.9612 -13.5486 -38.5145
lradius 33.1039
lwrist 35.704
lhand -44.2545 22.3691
lfingers 7.12502
lthumb -17.0662 51.6395
rfemur -47.6302 -17.8993 27.7261
rtibia 142.974
rfoot -49.637 -9.50437
rtoes -5.86426
lfemur -45.2142 27.2153 1.78446
ltibia 146.886
lfoot -52.2871 -21.4485
ltoes -13.9647
71
root -1.36442 8.21114 1.80123 161.278 -1.1134 -173.557
lowerback 34.5095 0.418984 2.41837
upperback 7.25409 -0.899229 1.06604
thorax -9.46385 -1.48095 0.354203
lowerneck -10.4698 -7.8703 -4.57087
upperneck -9.49413 -8.37127 13.3917
head -0.288344 -3.53125 4.49921
rclavicle 1.10325e-014 6.36111e-015
rhumerus 75.3835 11.0175 23.2441
rradius 41.359
rwrist -76.1539
rhand -50.0466 -9.17598
rfingers 7.12502
rthumb -22.6338 -37.8689
lclavicle 1.10325e-014 6.36111e-015
lhumerus 72.9357 -13.565 -39.1333
lradius 33.4712
lwrist 36.8389
lhand -44.7648 22.3956
lfingers 7.12502
lthumb -17.5574 51.6228
rfemur -47.9483 -18.9209 27.5206
rtibia 144.259
rfoot -49.9831 -9.79258
rtoes -6.05945
lfemur -45.1928 28.8247 2.70326
ltibia 148.173
lfoot -52.9021 -21.5405
ltoes -14.1011
